<mxfile host="Electron" modified="2024-06-07T06:23:05.686Z" agent="Mozilla/5.0 (Macintosh; Intel Mac OS X 10_15_7) AppleWebKit/537.36 (KHTML, like Gecko) draw.io/24.4.13 Chrome/124.0.6367.207 Electron/30.0.6 Safari/537.36" etag="MekhgpU4-zuOhDVaumul" version="24.4.13" type="device">
  <diagram id="C5RBs43oDa-KdzZeNtuy" name="Page-1">
    <mxGraphModel dx="1257" dy="736" grid="1" gridSize="10" guides="1" tooltips="1" connect="1" arrows="1" fold="1" page="1" pageScale="1" pageWidth="827" pageHeight="1169" math="0" shadow="0">
      <root>
        <mxCell id="WIyWlLk6GJQsqaUBKTNV-0" />
        <mxCell id="WIyWlLk6GJQsqaUBKTNV-1" parent="WIyWlLk6GJQsqaUBKTNV-0" />
        <mxCell id="4cGsfEynvk8oMks7jnHq-10" style="edgeStyle=orthogonalEdgeStyle;rounded=0;orthogonalLoop=1;jettySize=auto;html=1;entryX=0;entryY=0.5;entryDx=0;entryDy=0;" parent="WIyWlLk6GJQsqaUBKTNV-1" source="4cGsfEynvk8oMks7jnHq-0" target="4cGsfEynvk8oMks7jnHq-3" edge="1">
          <mxGeometry relative="1" as="geometry" />
        </mxCell>
        <mxCell id="4cGsfEynvk8oMks7jnHq-26" style="edgeStyle=orthogonalEdgeStyle;rounded=0;orthogonalLoop=1;jettySize=auto;html=1;entryX=0.5;entryY=0;entryDx=0;entryDy=0;" parent="WIyWlLk6GJQsqaUBKTNV-1" source="4cGsfEynvk8oMks7jnHq-3" target="4cGsfEynvk8oMks7jnHq-1" edge="1">
          <mxGeometry relative="1" as="geometry" />
        </mxCell>
        <mxCell id="zNEnf4VL7DeImLlyyE4k-16" style="edgeStyle=orthogonalEdgeStyle;rounded=0;orthogonalLoop=1;jettySize=auto;html=1;entryX=0;entryY=0.5;entryDx=0;entryDy=0;" edge="1" parent="WIyWlLk6GJQsqaUBKTNV-1" source="4cGsfEynvk8oMks7jnHq-3" target="zNEnf4VL7DeImLlyyE4k-6">
          <mxGeometry relative="1" as="geometry" />
        </mxCell>
        <mxCell id="zNEnf4VL7DeImLlyyE4k-17" style="edgeStyle=orthogonalEdgeStyle;rounded=0;orthogonalLoop=1;jettySize=auto;html=1;entryX=0;entryY=0.5;entryDx=0;entryDy=0;" edge="1" parent="WIyWlLk6GJQsqaUBKTNV-1" source="4cGsfEynvk8oMks7jnHq-3" target="4cGsfEynvk8oMks7jnHq-2">
          <mxGeometry relative="1" as="geometry" />
        </mxCell>
        <mxCell id="zNEnf4VL7DeImLlyyE4k-19" style="edgeStyle=orthogonalEdgeStyle;rounded=0;orthogonalLoop=1;jettySize=auto;html=1;entryX=0;entryY=0.5;entryDx=0;entryDy=0;" edge="1" parent="WIyWlLk6GJQsqaUBKTNV-1" source="4cGsfEynvk8oMks7jnHq-3" target="4cGsfEynvk8oMks7jnHq-4">
          <mxGeometry relative="1" as="geometry" />
        </mxCell>
        <mxCell id="4cGsfEynvk8oMks7jnHq-3" value="main.py&lt;div&gt;&lt;ul&gt;&lt;li style=&quot;text-align: justify;&quot;&gt;Fetch PR data&lt;/li&gt;&lt;li style=&quot;text-align: justify;&quot;&gt;Format console report&lt;/li&gt;&lt;li style=&quot;text-align: justify;&quot;&gt;Format HTML report&lt;/li&gt;&lt;li style=&quot;text-align: justify;&quot;&gt;Generate HTML file&lt;/li&gt;&lt;li style=&quot;text-align: justify;&quot;&gt;Send email with HTML attachment&lt;/li&gt;&lt;/ul&gt;&lt;/div&gt;" style="rounded=0;whiteSpace=wrap;html=1;align=center;" parent="WIyWlLk6GJQsqaUBKTNV-1" vertex="1">
          <mxGeometry x="235" y="130" width="306" height="200" as="geometry" />
        </mxCell>
        <mxCell id="4cGsfEynvk8oMks7jnHq-13" value="" style="group" parent="WIyWlLk6GJQsqaUBKTNV-1" vertex="1" connectable="0">
          <mxGeometry x="10" y="159.45" width="190" height="130" as="geometry" />
        </mxCell>
        <mxCell id="4cGsfEynvk8oMks7jnHq-0" value="config.py&lt;div&gt;&lt;ul&gt;&lt;li&gt;REPO_OWNER&lt;/li&gt;&lt;li&gt;REPO_NAME&lt;/li&gt;&lt;li&gt;EMAIL_FROM&lt;/li&gt;&lt;li&gt;EMAIL_TO&lt;/li&gt;&lt;li&gt;EMAIL_SUBJECT&lt;/li&gt;&lt;/ul&gt;&lt;/div&gt;" style="rounded=0;whiteSpace=wrap;html=1;" parent="4cGsfEynvk8oMks7jnHq-13" vertex="1">
          <mxGeometry x="10" y="10" width="180" height="120" as="geometry" />
        </mxCell>
        <mxCell id="4cGsfEynvk8oMks7jnHq-11" value="1" style="ellipse;whiteSpace=wrap;html=1;aspect=fixed;strokeWidth=2;fontFamily=Tahoma;spacingBottom=4;spacingRight=2;strokeColor=#d3d3d3;" parent="4cGsfEynvk8oMks7jnHq-13" vertex="1">
          <mxGeometry width="20" height="20" as="geometry" />
        </mxCell>
        <mxCell id="zNEnf4VL7DeImLlyyE4k-24" value="" style="html=1;verticalLabelPosition=bottom;align=center;labelBackgroundColor=#ffffff;verticalAlign=top;strokeWidth=2;strokeColor=#0080F0;shadow=0;dashed=0;shape=mxgraph.ios7.icons.settings;" vertex="1" parent="4cGsfEynvk8oMks7jnHq-13">
          <mxGeometry x="160" y="-10" width="30" height="30" as="geometry" />
        </mxCell>
        <mxCell id="7xgUiTttZdGV0sDnv-I--3" value="" style="group" parent="WIyWlLk6GJQsqaUBKTNV-1" vertex="1" connectable="0">
          <mxGeometry x="224" y="540" width="120" height="80" as="geometry" />
        </mxCell>
        <mxCell id="7xgUiTttZdGV0sDnv-I--1" value="GitHub Public Repository" style="ellipse;shape=cloud;whiteSpace=wrap;html=1;" parent="7xgUiTttZdGV0sDnv-I--3" vertex="1">
          <mxGeometry width="120" height="80" as="geometry" />
        </mxCell>
        <mxCell id="7xgUiTttZdGV0sDnv-I--2" value="" style="verticalLabelPosition=bottom;html=1;verticalAlign=top;align=center;strokeColor=none;fillColor=#00BEF2;shape=mxgraph.azure.github_code;pointerEvents=1;" parent="7xgUiTttZdGV0sDnv-I--3" vertex="1">
          <mxGeometry x="90" width="30" height="30" as="geometry" />
        </mxCell>
        <mxCell id="4cGsfEynvk8oMks7jnHq-30" style="edgeStyle=orthogonalEdgeStyle;rounded=0;orthogonalLoop=1;jettySize=auto;html=1;entryX=0.5;entryY=0.125;entryDx=0;entryDy=0;entryPerimeter=0;" parent="WIyWlLk6GJQsqaUBKTNV-1" source="4cGsfEynvk8oMks7jnHq-1" target="7xgUiTttZdGV0sDnv-I--1" edge="1">
          <mxGeometry relative="1" as="geometry" />
        </mxCell>
        <mxCell id="4cGsfEynvk8oMks7jnHq-32" value="" style="group" parent="WIyWlLk6GJQsqaUBKTNV-1" vertex="1" connectable="0">
          <mxGeometry x="184" y="390" width="190" height="130" as="geometry" />
        </mxCell>
        <mxCell id="4cGsfEynvk8oMks7jnHq-1" value="github_api.py&lt;div&gt;&lt;ul&gt;&lt;li&gt;fetch_pull_requests()&lt;br&gt;Formats PR data for console output&lt;/li&gt;&lt;/ul&gt;&lt;/div&gt;" style="rounded=0;whiteSpace=wrap;html=1;" parent="4cGsfEynvk8oMks7jnHq-32" vertex="1">
          <mxGeometry x="10" y="10" width="180" height="120" as="geometry" />
        </mxCell>
        <mxCell id="4cGsfEynvk8oMks7jnHq-12" value="2" style="ellipse;whiteSpace=wrap;html=1;aspect=fixed;strokeWidth=2;fontFamily=Tahoma;spacingBottom=4;spacingRight=2;strokeColor=#d3d3d3;" parent="4cGsfEynvk8oMks7jnHq-32" vertex="1">
          <mxGeometry width="20" height="20" as="geometry" />
        </mxCell>
        <mxCell id="4cGsfEynvk8oMks7jnHq-36" value="" style="shape=image;verticalLabelPosition=bottom;labelBackgroundColor=default;verticalAlign=top;aspect=fixed;imageAspect=0;image=https://upload.wikimedia.org/wikipedia/commons/thumb/c/c3/Python-logo-notext.svg/1200px-Python-logo-notext.svg.png;" parent="WIyWlLk6GJQsqaUBKTNV-1" vertex="1">
          <mxGeometry x="513.62" y="110" width="27.38" height="30" as="geometry" />
        </mxCell>
        <mxCell id="zNEnf4VL7DeImLlyyE4k-18" style="edgeStyle=orthogonalEdgeStyle;rounded=0;orthogonalLoop=1;jettySize=auto;html=1;entryX=0;entryY=0.5;entryDx=0;entryDy=0;" edge="1" parent="WIyWlLk6GJQsqaUBKTNV-1" source="zNEnf4VL7DeImLlyyE4k-6" target="zNEnf4VL7DeImLlyyE4k-10">
          <mxGeometry relative="1" as="geometry" />
        </mxCell>
        <mxCell id="zNEnf4VL7DeImLlyyE4k-20" value="" style="group" vertex="1" connectable="0" parent="WIyWlLk6GJQsqaUBKTNV-1">
          <mxGeometry x="560" y="186.4" width="254" height="76.1" as="geometry" />
        </mxCell>
        <mxCell id="4cGsfEynvk8oMks7jnHq-4" value="Output&lt;div&gt;&lt;ul&gt;&lt;li&gt;Email details printed to the console&lt;/li&gt;&lt;li&gt;Send email with the html report&lt;/li&gt;&lt;/ul&gt;&lt;/div&gt;" style="rounded=0;whiteSpace=wrap;html=1;" parent="zNEnf4VL7DeImLlyyE4k-20" vertex="1">
          <mxGeometry x="4" y="11.099999999999994" width="250" height="65" as="geometry" />
        </mxCell>
        <mxCell id="4cGsfEynvk8oMks7jnHq-33" value="5" style="ellipse;whiteSpace=wrap;html=1;aspect=fixed;strokeWidth=2;fontFamily=Tahoma;spacingBottom=4;spacingRight=2;strokeColor=#d3d3d3;" parent="zNEnf4VL7DeImLlyyE4k-20" vertex="1">
          <mxGeometry y="3.5999999999999943" width="20" height="20" as="geometry" />
        </mxCell>
        <mxCell id="4cGsfEynvk8oMks7jnHq-39" value="" style="image;aspect=fixed;html=1;points=[];align=center;fontSize=12;image=img/lib/azure2/other/Azure_Cloud_Shell.svg;" parent="zNEnf4VL7DeImLlyyE4k-20" vertex="1">
          <mxGeometry x="220" width="34" height="23.6" as="geometry" />
        </mxCell>
        <mxCell id="4cGsfEynvk8oMks7jnHq-37" value="" style="html=1;verticalLabelPosition=bottom;align=center;labelBackgroundColor=#ffffff;verticalAlign=top;strokeWidth=2;strokeColor=#0080F0;shadow=0;dashed=0;shape=mxgraph.ios7.icons.mail;" parent="zNEnf4VL7DeImLlyyE4k-20" vertex="1">
          <mxGeometry x="180" y="3.5999999999999943" width="30" height="16.5" as="geometry" />
        </mxCell>
        <mxCell id="zNEnf4VL7DeImLlyyE4k-21" value="" style="group" vertex="1" connectable="0" parent="WIyWlLk6GJQsqaUBKTNV-1">
          <mxGeometry x="610" y="525.1500000000001" width="190" height="134.8499999999999" as="geometry" />
        </mxCell>
        <mxCell id="zNEnf4VL7DeImLlyyE4k-10" value="&lt;div style=&quot;&quot;&gt;html_generator.py&lt;div&gt;&lt;ul&gt;&lt;li style=&quot;text-align: justify;&quot;&gt;generate_html_report()&lt;br&gt;Generates and saves the HTML report to a file&lt;/li&gt;&lt;/ul&gt;&lt;/div&gt;&lt;/div&gt;" style="rounded=0;whiteSpace=wrap;html=1;align=center;" vertex="1" parent="zNEnf4VL7DeImLlyyE4k-21">
          <mxGeometry x="10" y="14.849999999999909" width="180" height="120" as="geometry" />
        </mxCell>
        <mxCell id="zNEnf4VL7DeImLlyyE4k-11" value="4" style="ellipse;whiteSpace=wrap;html=1;aspect=fixed;strokeWidth=2;fontFamily=Tahoma;spacingBottom=4;spacingRight=2;strokeColor=#d3d3d3;" vertex="1" parent="zNEnf4VL7DeImLlyyE4k-21">
          <mxGeometry y="4.849999999999909" width="20" height="20" as="geometry" />
        </mxCell>
        <mxCell id="zNEnf4VL7DeImLlyyE4k-15" value="" style="dashed=0;outlineConnect=0;html=1;align=center;labelPosition=center;verticalLabelPosition=bottom;verticalAlign=top;shape=mxgraph.weblogos.html5" vertex="1" parent="zNEnf4VL7DeImLlyyE4k-21">
          <mxGeometry x="160" width="20" height="27.42" as="geometry" />
        </mxCell>
        <mxCell id="zNEnf4VL7DeImLlyyE4k-22" value="" style="group" vertex="1" connectable="0" parent="WIyWlLk6GJQsqaUBKTNV-1">
          <mxGeometry x="404" y="525.1500000000001" width="190" height="134.8499999999999" as="geometry" />
        </mxCell>
        <mxCell id="zNEnf4VL7DeImLlyyE4k-6" value="&lt;div style=&quot;&quot;&gt;html_formatter.py&lt;div&gt;&lt;ul&gt;&lt;li style=&quot;text-align: justify;&quot;&gt;format_html_body()&lt;br&gt;Formats PR data into an HTML body&lt;/li&gt;&lt;/ul&gt;&lt;/div&gt;&lt;/div&gt;" style="rounded=0;whiteSpace=wrap;html=1;align=center;" vertex="1" parent="zNEnf4VL7DeImLlyyE4k-22">
          <mxGeometry x="10" y="14.849999999999909" width="180" height="120" as="geometry" />
        </mxCell>
        <mxCell id="zNEnf4VL7DeImLlyyE4k-7" value="3" style="ellipse;whiteSpace=wrap;html=1;aspect=fixed;strokeWidth=2;fontFamily=Tahoma;spacingBottom=4;spacingRight=2;strokeColor=#d3d3d3;" vertex="1" parent="zNEnf4VL7DeImLlyyE4k-22">
          <mxGeometry y="4.849999999999909" width="20" height="20" as="geometry" />
        </mxCell>
        <mxCell id="zNEnf4VL7DeImLlyyE4k-14" value="" style="html=1;verticalLabelPosition=bottom;align=center;labelBackgroundColor=#ffffff;verticalAlign=top;strokeWidth=2;strokeColor=#0080F0;shadow=0;dashed=0;shape=mxgraph.ios7.icons.pen;" vertex="1" parent="zNEnf4VL7DeImLlyyE4k-22">
          <mxGeometry x="160.60000000000002" width="29.4" height="29.7" as="geometry" />
        </mxCell>
        <mxCell id="zNEnf4VL7DeImLlyyE4k-23" value="" style="group" vertex="1" connectable="0" parent="WIyWlLk6GJQsqaUBKTNV-1">
          <mxGeometry x="404" y="385.15000000000003" width="190" height="134.84999999999997" as="geometry" />
        </mxCell>
        <mxCell id="4cGsfEynvk8oMks7jnHq-2" value="&lt;div style=&quot;&quot;&gt;&lt;span style=&quot;background-color: initial;&quot;&gt;console_formatter.py&lt;/span&gt;&lt;/div&gt;&lt;div&gt;&lt;ul&gt;&lt;li&gt;&lt;div style=&quot;&quot;&gt;&lt;span style=&quot;background-color: initial;&quot;&gt;format_console_body()&lt;/span&gt;&lt;/div&gt;&lt;div style=&quot;&quot;&gt;&lt;span style=&quot;background-color: initial;&quot;&gt;Formats PR data for console output&lt;/span&gt;&lt;/div&gt;&lt;/li&gt;&lt;/ul&gt;&lt;/div&gt;" style="rounded=0;whiteSpace=wrap;html=1;align=center;" parent="zNEnf4VL7DeImLlyyE4k-23" vertex="1">
          <mxGeometry x="10" y="14.849999999999966" width="180" height="120" as="geometry" />
        </mxCell>
        <mxCell id="4cGsfEynvk8oMks7jnHq-21" value="3" style="ellipse;whiteSpace=wrap;html=1;aspect=fixed;strokeWidth=2;fontFamily=Tahoma;spacingBottom=4;spacingRight=2;strokeColor=#d3d3d3;" parent="zNEnf4VL7DeImLlyyE4k-23" vertex="1">
          <mxGeometry y="4.849999999999966" width="20" height="20" as="geometry" />
        </mxCell>
        <mxCell id="zNEnf4VL7DeImLlyyE4k-13" value="" style="html=1;verticalLabelPosition=bottom;align=center;labelBackgroundColor=#ffffff;verticalAlign=top;strokeWidth=2;strokeColor=#0080F0;shadow=0;dashed=0;shape=mxgraph.ios7.icons.pen;" vertex="1" parent="zNEnf4VL7DeImLlyyE4k-23">
          <mxGeometry x="160.60000000000002" width="29.4" height="29.7" as="geometry" />
        </mxCell>
      </root>
    </mxGraphModel>
  </diagram>
</mxfile>
